<?xml version="1.0" encoding="UTF-8" standalone="no"?><!DOCTYPE svg PUBLIC "-//W3C//DTD SVG 1.1//EN" "http://www.w3.org/Graphics/SVG/1.1/DTD/svg11.dtd"><svg width="100%" height="100%" viewBox="0 0 743 332" version="1.1" xmlns="http://www.w3.org/2000/svg" xmlns:xlink="http://www.w3.org/1999/xlink" xml:space="preserve" xmlns:serif="http://www.serif.com/" style="fill-rule:evenodd;clip-rule:evenodd;stroke-linecap:round;stroke-linejoin:round;stroke-miterlimit:1.5;"><g><rect x="0" y="201.627" width="742.67" height="129.623" style="fill:#fff;stroke:#fff;stroke-width:3.12px;"/><path d="M74.366,282.102c-0.208,0 -0.385,-0.072 -0.531,-0.218c-0.146,-0.146 -0.219,-0.323 -0.219,-0.532l0,-42.25c0,-0.208 0.073,-0.385 0.219,-0.531c0.146,-0.146 0.323,-0.219 0.531,-0.219l5.75,0c0.209,0 0.386,0.073 0.532,0.219c0.145,0.146 0.218,0.323 0.218,0.531l0,36.438c0,0.208 0.105,0.312 0.313,0.312l20.937,0c0.209,0 0.386,0.073 0.532,0.219c0.145,0.146 0.218,0.323 0.218,0.531l0,4.75c0,0.209 -0.073,0.386 -0.218,0.532c-0.146,0.146 -0.323,0.218 -0.532,0.218l-27.75,0Z" style="fill-rule:nonzero;"/><path d="M127.491,250.915c0,-0.208 0.073,-0.385 0.219,-0.531c0.146,-0.146 0.323,-0.219 0.531,-0.219l5.688,-0c0.208,-0 0.385,0.073 0.531,0.219c0.146,0.146 0.219,0.323 0.219,0.531l-0,30.437c-0,0.209 -0.073,0.386 -0.219,0.532c-0.146,0.146 -0.323,0.218 -0.531,0.218l-5.688,0c-0.208,0 -0.385,-0.072 -0.531,-0.218c-0.146,-0.146 -0.219,-0.323 -0.219,-0.532l0,-2c0,-0.125 -0.041,-0.208 -0.125,-0.25c-0.083,-0.041 -0.166,0 -0.25,0.125c-1.708,2.209 -4.27,3.313 -7.687,3.313c-3.167,-0 -5.823,-0.917 -7.969,-2.75c-2.146,-1.833 -3.219,-4.438 -3.219,-7.813l0,-21.062c0,-0.208 0.073,-0.385 0.219,-0.531c0.146,-0.146 0.323,-0.219 0.531,-0.219l5.75,-0c0.209,-0 0.386,0.073 0.532,0.219c0.145,0.146 0.218,0.323 0.218,0.531l0,19c0,1.958 0.511,3.521 1.532,4.687c1.02,1.167 2.448,1.75 4.281,1.75c1.875,0 3.375,-0.583 4.5,-1.75c1.125,-1.166 1.687,-2.729 1.687,-4.687l0,-19Z" style="fill-rule:nonzero;"/><path d="M140.741,282.102c-0.291,0 -0.489,-0.093 -0.593,-0.281c-0.105,-0.187 -0.073,-0.406 0.093,-0.656l10.125,-14.875c0.084,-0.125 0.084,-0.25 0,-0.375l-10.125,-14.813c-0.083,-0.166 -0.125,-0.312 -0.125,-0.437c0,-0.333 0.209,-0.5 0.625,-0.5l6.125,-0c0.375,-0 0.667,0.167 0.875,0.5l6.5,9.625c0.084,0.083 0.167,0.125 0.25,0.125c0.084,-0 0.146,-0.042 0.188,-0.125l6.5,-9.625c0.208,-0.333 0.5,-0.5 0.875,-0.5l6.562,-0c0.292,-0 0.49,0.094 0.594,0.281c0.104,0.188 0.073,0.406 -0.094,0.656l-10.125,14.813c-0.041,0.125 -0.041,0.25 0,0.375l10.125,14.875c0.084,0.167 0.125,0.312 0.125,0.437c0,0.334 -0.208,0.5 -0.625,0.5l-6.125,0c-0.375,0 -0.666,-0.166 -0.875,-0.5l-6.5,-9.625c-0.041,-0.083 -0.104,-0.125 -0.187,-0.125c-0.083,0 -0.167,0.042 -0.25,0.125l-6.5,9.625c-0.208,0.334 -0.5,0.5 -0.875,0.5l-6.563,0Z" style="fill-rule:nonzero;"/><path d="M193.554,250.915c-0,-0.208 0.073,-0.385 0.219,-0.531c0.145,-0.146 0.323,-0.219 0.531,-0.219l5.687,-0c0.209,-0 0.386,0.073 0.532,0.219c0.145,0.146 0.218,0.323 0.218,0.531l0,30.437c0,0.209 -0.073,0.386 -0.218,0.532c-0.146,0.146 -0.323,0.218 -0.532,0.218l-5.687,0c-0.208,0 -0.386,-0.072 -0.531,-0.218c-0.146,-0.146 -0.219,-0.323 -0.219,-0.532l-0,-2c-0,-0.125 -0.042,-0.208 -0.125,-0.25c-0.083,-0.041 -0.167,0 -0.25,0.125c-1.708,2.209 -4.271,3.313 -7.688,3.313c-3.166,-0 -5.823,-0.917 -7.968,-2.75c-2.146,-1.833 -3.219,-4.438 -3.219,-7.813l-0,-21.062c-0,-0.208 0.073,-0.385 0.219,-0.531c0.145,-0.146 0.323,-0.219 0.531,-0.219l5.75,-0c0.208,-0 0.385,0.073 0.531,0.219c0.146,0.146 0.219,0.323 0.219,0.531l-0,19c-0,1.958 0.51,3.521 1.531,4.687c1.021,1.167 2.448,1.75 4.281,1.75c1.875,0 3.375,-0.583 4.5,-1.75c1.125,-1.166 1.688,-2.729 1.688,-4.687l-0,-19Z" style="fill-rule:nonzero;"/><path d="M223.366,249.79c1.334,-0 2.5,0.271 3.5,0.812c0.334,0.167 0.459,0.48 0.375,0.938l-1.062,5.625c-0.042,0.5 -0.333,0.646 -0.875,0.437c-0.625,-0.208 -1.354,-0.312 -2.188,-0.312c-0.541,-0 -0.958,0.021 -1.25,0.062c-1.75,0.084 -3.208,0.698 -4.375,1.844c-1.166,1.146 -1.75,2.636 -1.75,4.469l0,17.687c0,0.209 -0.073,0.386 -0.218,0.532c-0.146,0.146 -0.323,0.218 -0.532,0.218l-5.75,0c-0.208,0 -0.385,-0.072 -0.531,-0.218c-0.146,-0.146 -0.219,-0.323 -0.219,-0.532l0,-30.437c0,-0.208 0.073,-0.385 0.219,-0.531c0.146,-0.146 0.323,-0.219 0.531,-0.219l5.75,-0c0.209,-0 0.386,0.073 0.532,0.219c0.145,0.146 0.218,0.323 0.218,0.531l0,2.812c0,0.167 0.032,0.261 0.094,0.282c0.063,0.021 0.136,-0.032 0.219,-0.157c1.75,-2.708 4.187,-4.062 7.312,-4.062Z" style="fill-rule:nonzero;"/><path d="M232.429,294.54c-0.125,-0 -0.229,-0.073 -0.313,-0.219c-0.083,-0.146 -0.125,-0.323 -0.125,-0.531l0,-4.5c0,-0.208 0.073,-0.385 0.219,-0.531c0.146,-0.146 0.323,-0.219 0.531,-0.219l0.063,-0c1.708,-0.042 3.042,-0.219 4,-0.531c0.958,-0.313 1.75,-0.907 2.375,-1.782c0.625,-0.875 1.187,-2.187 1.687,-3.937c0.042,-0.083 0.042,-0.208 0,-0.375l-10.312,-30.938c-0.042,-0.083 -0.063,-0.187 -0.063,-0.312c0,-0.375 0.209,-0.563 0.625,-0.563l6.125,0c0.459,0 0.75,0.209 0.875,0.625l6.25,22c0.042,0.125 0.105,0.188 0.188,0.188c0.083,-0 0.146,-0.063 0.187,-0.188l6.25,-22c0.125,-0.416 0.417,-0.625 0.875,-0.625l5.938,0c0.25,0 0.427,0.073 0.531,0.219c0.104,0.146 0.115,0.365 0.031,0.656l-11,32.875c-1.041,2.959 -2.062,5.167 -3.062,6.625c-1,1.459 -2.365,2.5 -4.094,3.125c-1.729,0.625 -4.177,0.938 -7.344,0.938l-0.437,-0Z" style="fill-rule:nonzero;"/><path d="M292.741,250.102c0.209,0 0.386,0.073 0.532,0.219c0.145,0.146 0.218,0.323 0.218,0.531l0,4.938c0,0.208 -0.073,0.385 -0.218,0.531c-0.146,0.146 -0.323,0.219 -0.532,0.219l-6.187,-0c-0.208,-0 -0.313,0.104 -0.313,0.312l0,24.5c0,0.209 -0.073,0.386 -0.218,0.532c-0.146,0.146 -0.323,0.218 -0.532,0.218l-5.75,0c-0.208,0 -0.385,-0.072 -0.531,-0.218c-0.146,-0.146 -0.219,-0.323 -0.219,-0.532l0,-24.5c0,-0.208 -0.104,-0.312 -0.312,-0.312l-3.875,-0c-0.208,-0 -0.386,-0.073 -0.531,-0.219c-0.146,-0.146 -0.219,-0.323 -0.219,-0.531l-0,-4.938c-0,-0.208 0.073,-0.385 0.219,-0.531c0.145,-0.146 0.323,-0.219 0.531,-0.219l3.875,0c0.208,0 0.312,-0.104 0.312,-0.312l0,-1.125c0,-2.708 0.355,-4.802 1.063,-6.281c0.708,-1.479 1.875,-2.532 3.5,-3.157c1.625,-0.625 3.917,-0.916 6.875,-0.875l2.187,0c0.209,0 0.386,0.073 0.532,0.219c0.145,0.146 0.218,0.323 0.218,0.531l0,4.375c0,0.209 -0.073,0.386 -0.218,0.532c-0.146,0.146 -0.323,0.218 -0.532,0.218l-1.625,0c-1.791,0 -3.031,0.355 -3.718,1.063c-0.688,0.708 -1.032,2 -1.032,3.875l0,0.625c0,0.208 0.105,0.312 0.313,0.312l6.187,0Z" style="fill-rule:nonzero;"/><path d="M310.929,282.602c-3.292,0 -6.115,-0.833 -8.469,-2.5c-2.354,-1.666 -4.01,-3.979 -4.969,-6.937c-0.708,-2.25 -1.062,-4.625 -1.062,-7.125c-0,-2.667 0.333,-5.042 1,-7.125c0.958,-2.917 2.625,-5.188 5,-6.813c2.375,-1.625 5.229,-2.437 8.562,-2.437c3.167,-0 5.907,0.812 8.219,2.437c2.313,1.625 3.948,3.875 4.906,6.75c0.75,2 1.125,4.375 1.125,7.125c0,2.625 -0.354,5 -1.062,7.125c-0.958,2.959 -2.604,5.282 -4.938,6.969c-2.333,1.688 -5.104,2.531 -8.312,2.531Zm-0,-6.25c1.542,0 2.864,-0.437 3.969,-1.312c1.104,-0.875 1.906,-2.104 2.406,-3.688c0.417,-1.375 0.625,-3.125 0.625,-5.25c-0,-2.25 -0.208,-4 -0.625,-5.25c-0.458,-1.583 -1.25,-2.802 -2.375,-3.656c-1.125,-0.854 -2.5,-1.281 -4.125,-1.281c-1.542,-0 -2.875,0.427 -4,1.281c-1.125,0.854 -1.938,2.073 -2.438,3.656c-0.416,1.459 -0.625,3.209 -0.625,5.25c0,2.042 0.209,3.792 0.625,5.25c0.459,1.584 1.261,2.813 2.407,3.688c1.145,0.875 2.531,1.312 4.156,1.312Z" style="fill-rule:nonzero;"/><path d="M346.991,249.79c1.334,-0 2.5,0.271 3.5,0.812c0.334,0.167 0.459,0.48 0.375,0.938l-1.062,5.625c-0.042,0.5 -0.333,0.646 -0.875,0.437c-0.625,-0.208 -1.354,-0.312 -2.188,-0.312c-0.541,-0 -0.958,0.021 -1.25,0.062c-1.75,0.084 -3.208,0.698 -4.375,1.844c-1.166,1.146 -1.75,2.636 -1.75,4.469l0,17.687c0,0.209 -0.073,0.386 -0.218,0.532c-0.146,0.146 -0.323,0.218 -0.532,0.218l-5.75,0c-0.208,0 -0.385,-0.072 -0.531,-0.218c-0.146,-0.146 -0.219,-0.323 -0.219,-0.532l0,-30.437c0,-0.208 0.073,-0.385 0.219,-0.531c0.146,-0.146 0.323,-0.219 0.531,-0.219l5.75,-0c0.209,-0 0.386,0.073 0.532,0.219c0.145,0.146 0.218,0.323 0.218,0.531l0,2.812c0,0.167 0.032,0.261 0.094,0.282c0.063,0.021 0.136,-0.032 0.219,-0.157c1.75,-2.708 4.187,-4.062 7.312,-4.062Z" style="fill-rule:nonzero;"/><path d="M369.554,282.102c-0.208,0 -0.386,-0.072 -0.531,-0.218c-0.146,-0.146 -0.219,-0.323 -0.219,-0.532l-0,-42.25c-0,-0.208 0.073,-0.385 0.219,-0.531c0.145,-0.146 0.323,-0.219 0.531,-0.219l15.25,0c2.958,0 5.562,0.521 7.812,1.563c2.25,1.042 3.99,2.531 5.219,4.469c1.229,1.937 1.844,4.198 1.844,6.781l-0,18.125c-0,2.583 -0.615,4.844 -1.844,6.781c-1.229,1.938 -2.969,3.427 -5.219,4.469c-2.25,1.042 -4.854,1.562 -7.812,1.562l-15.25,0Zm6.5,-6.562c-0,0.208 0.104,0.312 0.312,0.312l8.75,0c2.209,0 3.969,-0.697 5.282,-2.093c1.312,-1.396 1.989,-3.261 2.031,-5.594l-0,-15.813c-0,-2.375 -0.667,-4.26 -2,-5.656c-1.333,-1.396 -3.125,-2.094 -5.375,-2.094l-8.688,0c-0.208,0 -0.312,0.105 -0.312,0.313l-0,30.625Z" style="fill-rule:nonzero;"/><path d="M433.679,262.54c0.167,1.042 0.25,2.208 0.25,3.5l-0.063,1.937c0,0.5 -0.25,0.75 -0.75,0.75l-19.562,0c-0.208,0 -0.313,0.105 -0.313,0.313c0.125,1.375 0.313,2.312 0.563,2.812c1,3 3.437,4.521 7.312,4.563c2.834,-0 5.084,-1.167 6.75,-3.5c0.167,-0.25 0.375,-0.375 0.625,-0.375c0.167,-0 0.313,0.062 0.438,0.187l3.875,3.188c0.375,0.292 0.437,0.625 0.187,1c-1.291,1.833 -3.01,3.25 -5.156,4.25c-2.146,1 -4.531,1.5 -7.156,1.5c-3.25,-0 -6.011,-0.729 -8.281,-2.188c-2.271,-1.458 -3.927,-3.5 -4.969,-6.125c-0.958,-2.25 -1.438,-5.375 -1.438,-9.375c0,-2.416 0.25,-4.375 0.75,-5.875c0.834,-2.916 2.407,-5.218 4.719,-6.906c2.313,-1.687 5.094,-2.531 8.344,-2.531c8.208,-0 12.833,4.292 13.875,12.875Zm-13.875,-6.625c-1.542,-0 -2.823,0.385 -3.844,1.156c-1.021,0.771 -1.739,1.844 -2.156,3.219c-0.25,0.708 -0.417,1.625 -0.5,2.75c-0.083,0.208 -0,0.312 0.25,0.312l12.687,0c0.209,0 0.313,-0.104 0.313,-0.312c-0.083,-1.042 -0.208,-1.833 -0.375,-2.375c-0.375,-1.5 -1.115,-2.667 -2.219,-3.5c-1.104,-0.833 -2.489,-1.25 -4.156,-1.25Z" style="fill-rule:nonzero;"/><path d="M447.804,282.102c-0.417,0 -0.688,-0.208 -0.813,-0.625l-10.062,-30.5c-0.042,-0.083 -0.063,-0.187 -0.063,-0.312c0,-0.375 0.23,-0.563 0.688,-0.563l6.375,0c0.458,0 0.75,0.209 0.875,0.625l6.062,20.875c0.042,0.125 0.105,0.188 0.188,0.188c0.083,-0 0.146,-0.063 0.187,-0.188l6.063,-20.875c0.125,-0.416 0.417,-0.625 0.875,-0.625l6.375,0.125c0.25,0 0.437,0.073 0.562,0.219c0.125,0.146 0.146,0.365 0.063,0.656l-10,30.375c-0.125,0.417 -0.396,0.625 -0.813,0.625l-6.562,0Z" style="fill-rule:nonzero;"/><path d="M495.929,262.54c0.167,1.042 0.25,2.208 0.25,3.5l-0.063,1.937c0,0.5 -0.25,0.75 -0.75,0.75l-19.562,0c-0.208,0 -0.313,0.105 -0.313,0.313c0.125,1.375 0.313,2.312 0.563,2.812c1,3 3.437,4.521 7.312,4.563c2.834,-0 5.084,-1.167 6.75,-3.5c0.167,-0.25 0.375,-0.375 0.625,-0.375c0.167,-0 0.313,0.062 0.438,0.187l3.875,3.188c0.375,0.292 0.437,0.625 0.187,1c-1.291,1.833 -3.01,3.25 -5.156,4.25c-2.146,1 -4.531,1.5 -7.156,1.5c-3.25,-0 -6.011,-0.729 -8.281,-2.188c-2.271,-1.458 -3.927,-3.5 -4.969,-6.125c-0.958,-2.25 -1.438,-5.375 -1.438,-9.375c0,-2.416 0.25,-4.375 0.75,-5.875c0.834,-2.916 2.407,-5.218 4.719,-6.906c2.313,-1.687 5.094,-2.531 8.344,-2.531c8.208,-0 12.833,4.292 13.875,12.875Zm-13.875,-6.625c-1.542,-0 -2.823,0.385 -3.844,1.156c-1.021,0.771 -1.739,1.844 -2.156,3.219c-0.25,0.708 -0.417,1.625 -0.5,2.75c-0.083,0.208 -0,0.312 0.25,0.312l12.687,0c0.209,0 0.313,-0.104 0.313,-0.312c-0.083,-1.042 -0.208,-1.833 -0.375,-2.375c-0.375,-1.5 -1.115,-2.667 -2.219,-3.5c-1.104,-0.833 -2.489,-1.25 -4.156,-1.25Z" style="fill-rule:nonzero;"/><path d="M503.554,282.102c-0.208,0 -0.386,-0.072 -0.531,-0.218c-0.146,-0.146 -0.219,-0.323 -0.219,-0.532l-0,-42.25c-0,-0.208 0.073,-0.385 0.219,-0.531c0.145,-0.146 0.323,-0.219 0.531,-0.219l5.75,0c0.208,0 0.385,0.073 0.531,0.219c0.146,0.146 0.219,0.323 0.219,0.531l-0,42.25c-0,0.209 -0.073,0.386 -0.219,0.532c-0.146,0.146 -0.323,0.218 -0.531,0.218l-5.75,0Z" style="fill-rule:nonzero;"/><path d="M531.304,282.602c-3.292,0 -6.115,-0.833 -8.469,-2.5c-2.354,-1.666 -4.01,-3.979 -4.969,-6.937c-0.708,-2.25 -1.062,-4.625 -1.062,-7.125c-0,-2.667 0.333,-5.042 1,-7.125c0.958,-2.917 2.625,-5.188 5,-6.813c2.375,-1.625 5.229,-2.437 8.562,-2.437c3.167,-0 5.907,0.812 8.219,2.437c2.313,1.625 3.948,3.875 4.906,6.75c0.75,2 1.125,4.375 1.125,7.125c0,2.625 -0.354,5 -1.062,7.125c-0.958,2.959 -2.604,5.282 -4.938,6.969c-2.333,1.688 -5.104,2.531 -8.312,2.531Zm-0,-6.25c1.542,0 2.864,-0.437 3.969,-1.312c1.104,-0.875 1.906,-2.104 2.406,-3.688c0.417,-1.375 0.625,-3.125 0.625,-5.25c-0,-2.25 -0.208,-4 -0.625,-5.25c-0.458,-1.583 -1.25,-2.802 -2.375,-3.656c-1.125,-0.854 -2.5,-1.281 -4.125,-1.281c-1.542,-0 -2.875,0.427 -4,1.281c-1.125,0.854 -1.938,2.073 -2.438,3.656c-0.416,1.459 -0.625,3.209 -0.625,5.25c0,2.042 0.209,3.792 0.625,5.25c0.459,1.584 1.261,2.813 2.407,3.688c1.145,0.875 2.531,1.312 4.156,1.312Z" style="fill-rule:nonzero;"/><path d="M579.554,258.415c0.75,2.125 1.125,4.729 1.125,7.812c-0,2.959 -0.354,5.5 -1.063,7.625c-0.916,2.75 -2.385,4.896 -4.406,6.438c-2.021,1.542 -4.573,2.312 -7.656,2.312c-2.958,0 -5.333,-1.062 -7.125,-3.187c-0.083,-0.083 -0.167,-0.104 -0.25,-0.063c-0.083,0.042 -0.125,0.125 -0.125,0.25l-0,13.563c-0,0.208 -0.073,0.385 -0.219,0.531c-0.146,0.146 -0.323,0.219 -0.531,0.219l-5.75,-0c-0.208,-0 -0.386,-0.073 -0.531,-0.219c-0.146,-0.146 -0.219,-0.323 -0.219,-0.531l-0,-42.25c-0,-0.208 0.073,-0.385 0.219,-0.531c0.145,-0.146 0.323,-0.219 0.531,-0.219l5.75,-0c0.208,-0 0.385,0.073 0.531,0.219c0.146,0.146 0.219,0.323 0.219,0.531l-0,1.875c-0,0.125 0.042,0.208 0.125,0.25c0.083,0.042 0.167,-0 0.25,-0.125c1.833,-2.167 4.229,-3.25 7.187,-3.25c2.959,-0 5.459,0.771 7.5,2.312c2.042,1.542 3.521,3.688 4.438,6.438Zm-8.125,15.312c1.25,-1.916 1.875,-4.458 1.875,-7.625c-0,-3.041 -0.5,-5.437 -1.5,-7.187c-1.167,-2.042 -2.938,-3.063 -5.313,-3.063c-2.166,0 -3.791,1 -4.875,3c-0.958,1.625 -1.437,4.042 -1.437,7.25c-0,3.292 0.521,5.792 1.562,7.5c1.084,1.834 2.646,2.75 4.688,2.75c2.208,0 3.875,-0.875 5,-2.625Z" style="fill-rule:nonzero;"/><path d="M614.366,262.54c0.167,1.042 0.25,2.208 0.25,3.5l-0.062,1.937c-0,0.5 -0.25,0.75 -0.75,0.75l-19.563,0c-0.208,0 -0.312,0.105 -0.312,0.313c0.125,1.375 0.312,2.312 0.562,2.812c1,3 3.438,4.521 7.313,4.563c2.833,-0 5.083,-1.167 6.75,-3.5c0.167,-0.25 0.375,-0.375 0.625,-0.375c0.167,-0 0.312,0.062 0.437,0.187l3.875,3.188c0.375,0.292 0.438,0.625 0.188,1c-1.292,1.833 -3.011,3.25 -5.156,4.25c-2.146,1 -4.532,1.5 -7.157,1.5c-3.25,-0 -6.01,-0.729 -8.281,-2.188c-2.271,-1.458 -3.927,-3.5 -4.969,-6.125c-0.958,-2.25 -1.437,-5.375 -1.437,-9.375c-0,-2.416 0.25,-4.375 0.75,-5.875c0.833,-2.916 2.406,-5.218 4.719,-6.906c2.312,-1.687 5.093,-2.531 8.343,-2.531c8.209,-0 12.834,4.292 13.875,12.875Zm-13.875,-6.625c-1.541,-0 -2.823,0.385 -3.843,1.156c-1.021,0.771 -1.74,1.844 -2.157,3.219c-0.25,0.708 -0.416,1.625 -0.5,2.75c-0.083,0.208 0,0.312 0.25,0.312l12.688,0c0.208,0 0.312,-0.104 0.312,-0.312c-0.083,-1.042 -0.208,-1.833 -0.375,-2.375c-0.375,-1.5 -1.114,-2.667 -2.218,-3.5c-1.105,-0.833 -2.49,-1.25 -4.157,-1.25Z" style="fill-rule:nonzero;"/><path d="M636.116,249.79c1.334,-0 2.5,0.271 3.5,0.812c0.334,0.167 0.459,0.48 0.375,0.938l-1.062,5.625c-0.042,0.5 -0.333,0.646 -0.875,0.437c-0.625,-0.208 -1.354,-0.312 -2.188,-0.312c-0.541,-0 -0.958,0.021 -1.25,0.062c-1.75,0.084 -3.208,0.698 -4.375,1.844c-1.166,1.146 -1.75,2.636 -1.75,4.469l0,17.687c0,0.209 -0.073,0.386 -0.218,0.532c-0.146,0.146 -0.323,0.218 -0.532,0.218l-5.75,0c-0.208,0 -0.385,-0.072 -0.531,-0.218c-0.146,-0.146 -0.219,-0.323 -0.219,-0.532l0,-30.437c0,-0.208 0.073,-0.385 0.219,-0.531c0.146,-0.146 0.323,-0.219 0.531,-0.219l5.75,-0c0.209,-0 0.386,0.073 0.532,0.219c0.145,0.146 0.218,0.323 0.218,0.531l0,2.812c0,0.167 0.032,0.261 0.094,0.282c0.063,0.021 0.136,-0.032 0.219,-0.157c1.75,-2.708 4.187,-4.062 7.312,-4.062Z" style="fill-rule:nonzero;"/><path d="M656.241,282.477c-2.625,0 -4.927,-0.385 -6.906,-1.156c-1.979,-0.771 -3.51,-1.833 -4.594,-3.187c-1.083,-1.354 -1.625,-2.865 -1.625,-4.532l0,-0.562c0,-0.208 0.073,-0.385 0.219,-0.531c0.146,-0.146 0.323,-0.219 0.531,-0.219l5.5,-0c0.209,-0 0.386,0.073 0.532,0.219c0.145,0.146 0.218,0.323 0.218,0.531l0,0.125c0,1.042 0.573,1.948 1.719,2.719c1.146,0.771 2.594,1.156 4.344,1.156c1.667,-0 3.021,-0.344 4.062,-1.031c1.042,-0.688 1.563,-1.552 1.563,-2.594c-0,-0.958 -0.427,-1.677 -1.281,-2.156c-0.855,-0.479 -2.24,-0.99 -4.157,-1.532l-2.375,-0.75c-2.125,-0.625 -3.916,-1.291 -5.375,-2c-1.458,-0.708 -2.687,-1.677 -3.687,-2.906c-1,-1.229 -1.5,-2.802 -1.5,-4.719c-0,-2.916 1.146,-5.239 3.437,-6.968c2.292,-1.729 5.313,-2.594 9.063,-2.594c2.542,-0 4.771,0.406 6.687,1.219c1.917,0.812 3.396,1.937 4.438,3.375c1.042,1.437 1.562,3.073 1.562,4.906c0,0.208 -0.073,0.385 -0.218,0.531c-0.146,0.146 -0.323,0.219 -0.532,0.219l-5.312,-0c-0.208,-0 -0.386,-0.073 -0.531,-0.219c-0.146,-0.146 -0.219,-0.323 -0.219,-0.531c-0,-1.083 -0.531,-1.99 -1.594,-2.719c-1.062,-0.729 -2.51,-1.094 -4.344,-1.094c-1.625,0 -2.948,0.303 -3.968,0.907c-1.021,0.604 -1.532,1.448 -1.532,2.531c0,1 0.49,1.76 1.469,2.281c0.979,0.521 2.615,1.094 4.906,1.719l1.375,0.375c2.209,0.667 4.063,1.344 5.563,2.031c1.5,0.688 2.771,1.646 3.812,2.875c1.042,1.229 1.563,2.823 1.563,4.781c-0,2.959 -1.167,5.282 -3.5,6.969c-2.333,1.688 -5.438,2.531 -9.313,2.531Z" style="fill-rule:nonzero;"/></g><g><path d="M556.833,105.078l3.223,0.684l-11.328,35.937l-102.539,0l-0,-3.613l4.98,-0c5.599,-0 9.603,-1.823 12.012,-5.469c1.367,-2.083 2.051,-6.901 2.051,-14.453l-0,-85.449c-0,-8.268 -0.912,-13.444 -2.735,-15.528c-2.539,-2.864 -6.315,-4.296 -11.328,-4.296l-4.98,-0l-0,-3.614l59.961,0l-0,3.614c-7.032,-0.065 -11.963,0.586 -14.795,1.953c-2.832,1.367 -4.769,3.092 -5.811,5.176c-1.042,2.083 -1.562,7.063 -1.562,14.941l-0,83.203c-0,5.404 0.52,9.115 1.562,11.133c0.781,1.367 1.986,2.376 3.613,3.027c1.628,0.651 6.706,0.977 15.235,0.977l9.668,-0c10.156,-0 17.285,-0.749 21.386,-2.246c4.102,-1.498 7.846,-4.151 11.231,-7.959c3.385,-3.809 6.771,-9.815 10.156,-18.018Z" style="fill:#fff;fill-rule:nonzero;"/><g><path d="M430.173,6.25l3.027,45.02l-3.027,-0c-4.036,-13.477 -9.798,-23.178 -17.285,-29.102c-7.487,-5.925 -16.471,-8.887 -26.953,-8.887c-8.789,0 -16.732,2.23 -23.828,6.69c-7.097,4.459 -12.679,11.572 -16.748,21.338c-4.069,9.765 -6.104,21.907 -6.104,36.425c0,11.98 1.921,22.364 5.762,31.153c3.841,8.789 9.619,15.527 17.334,20.215c7.715,4.687 16.52,7.031 26.416,7.031c8.594,-0 16.178,-1.839 22.754,-5.518c6.575,-3.678 13.802,-10.986 21.679,-21.924l3.028,1.954c-6.641,11.783 -14.388,20.41 -23.242,25.878c-8.855,5.469 -19.369,8.204 -31.543,8.204c-21.941,-0 -38.933,-8.138 -50.977,-24.415c-8.984,-12.109 -13.477,-26.367 -13.477,-42.773c0,-13.216 2.963,-25.358 8.887,-36.426c5.925,-11.067 14.079,-19.645 24.463,-25.732c10.384,-6.087 21.729,-9.131 34.033,-9.131c9.571,-0 19.011,2.344 28.321,7.031c2.734,1.433 4.687,2.149 5.859,2.149c1.758,-0 3.288,-0.619 4.59,-1.856c1.692,-1.758 2.897,-4.199 3.613,-7.324l3.418,-0Z" style="fill:#fff;fill-rule:nonzero;"/><path d="M361.07,72.363l23.486,0l0,-23.437l6.397,-0l-0,23.437l23.486,0l-0,6.446l-23.486,-0l-0,23.242l-6.397,-0l0,-23.242l-23.486,-0l-0,-6.446Z" style="fill:#fff;fill-rule:nonzero;"/></g><g><path d="M295.798,6.25l3.027,45.02l-3.027,-0c-4.036,-13.477 -9.798,-23.178 -17.285,-29.102c-7.487,-5.925 -16.471,-8.887 -26.953,-8.887c-8.789,0 -16.732,2.23 -23.828,6.69c-7.097,4.459 -12.679,11.572 -16.748,21.338c-4.069,9.765 -6.104,21.907 -6.104,36.425c0,11.98 1.921,22.364 5.762,31.153c3.841,8.789 9.619,15.527 17.334,20.215c7.715,4.687 16.52,7.031 26.416,7.031c8.594,-0 16.178,-1.839 22.754,-5.518c6.575,-3.678 13.802,-10.986 21.679,-21.924l3.028,1.954c-6.641,11.783 -14.388,20.41 -23.242,25.878c-8.855,5.469 -19.369,8.204 -31.543,8.204c-21.941,-0 -38.933,-8.138 -50.977,-24.415c-8.984,-12.109 -13.477,-26.367 -13.477,-42.773c0,-13.216 2.963,-25.358 8.887,-36.426c5.925,-11.067 14.079,-19.645 24.463,-25.732c10.384,-6.087 21.729,-9.131 34.033,-9.131c9.571,-0 19.011,2.344 28.321,7.031c2.734,1.433 4.687,2.149 5.859,2.149c1.758,-0 3.288,-0.619 4.59,-1.856c1.692,-1.758 2.897,-4.199 3.613,-7.324l3.418,-0Z" style="fill:#fff;fill-rule:nonzero;"/><path d="M226.695,72.363l23.486,0l0,-23.437l6.397,-0l-0,23.437l23.486,0l-0,6.446l-23.486,-0l-0,23.242l-6.397,-0l0,-23.242l-23.486,-0l-0,-6.446Z" style="fill:#fff;fill-rule:nonzero;"/></g></g></svg>